# Blender 5.0.1
# www.blender.org
mtllib chair_manufacturing.mtl
o shell_00
v 13.717262 1.735432 -0.031744
v 13.822400 1.928325 -0.487542
v 14.019546 1.560348 -0.381672
v 13.777352 1.560350 -0.054211
v 13.781561 1.560350 0.220249
v 13.721090 1.762596 0.829509
v 15.244492 1.735432 -0.031744
v 15.240662 1.762596 0.829509
v 15.180191 1.560350 0.220249
v 15.184400 1.560350 -0.054211
v 15.246013 1.762457 -0.021097
v 15.246013 1.832464 0.632732
v 15.242102 1.787005 0.828694
v 13.715739 1.762457 -0.021097
v 13.715739 1.832464 0.632732
v 13.719648 1.787005 0.828694
v 15.139354 1.928325 -0.487542
v 14.942206 1.560348 -0.381672
v 14.315255 1.847379 -0.716552
v 14.646497 1.847379 -0.716552
vn -0.7578 -0.5196 -0.3947
vn -0.7884 -0.1958 -0.5831
vn -0.9766 0.0289 -0.2131
vn 0.9766 0.0289 -0.2130
vn 0.7578 -0.5196 -0.3947
vn 0.7884 -0.1958 -0.5831
vn -0.4355 -0.4565 -0.7758
vn 0.4355 -0.4565 -0.7758
vn -0.0000 -0.7593 -0.6508
vn 0.9452 -0.3263 0.0145
vn -0.9983 -0.0587 0.0063
vn -0.9982 -0.0592 0.0063
vn 0.9983 -0.0584 0.0063
vn 0.9983 -0.0587 0.0063
vn -0.9452 -0.3263 0.0145
vt 0.114085 0.680554
vt 0.028903 0.634909
vt 0.096335 0.587799
vt 0.137558 0.653770
vt 0.111395 0.685415
vt 0.111394 0.313958
vt 0.114084 0.318819
vt 0.028903 0.364464
vt 0.096334 0.411574
vt 0.137558 0.345603
vt 0.012094 0.531320
vt 0.012094 0.468054
vt 0.172730 0.306724
vt 0.220365 0.193157
vt 0.220365 0.806217
vt 0.216791 0.809227
vt 0.185268 0.787247
vt 0.111605 0.685525
vt 0.216791 0.190146
vt 0.111604 0.313848
vt 0.185268 0.212126
vt 0.172730 0.692649
s 1
usemtl diffuse_0.001
f 1/1/1 2/2/1 3/3/1
f 4/4/2 1/1/2 3/3/2
f 14/5/3 2/2/3 1/1/3
f 11/6/4 7/7/4 17/8/4
f 7/7/5 18/9/5 17/8/5
f 10/10/6 18/9/6 7/7/6
f 2/2/7 19/11/7 3/3/7
f 17/8/8 18/9/8 20/12/8
f 20/12/9 18/9/9 3/3/9 19/11/9
f 9/13/10 10/10/10 7/7/10 8/14/10
f 6/15/11 16/16/11 15/17/11 14/18/11 1/1/12
f 13/19/13 8/14/14 7/7/14 11/20/14 12/21/14
f 1/1/15 4/4/15 5/22/15 6/15/15
o shell_01
v 13.466327 2.461281 -0.212645
v 13.954106 2.195177 -0.576670
v 13.593888 2.688365 -0.464186
v 13.484193 2.455329 -0.175885
v 13.613452 2.690676 -0.432266
v 13.962184 2.211541 -0.496593
v 13.822400 1.928325 -0.487543
v 14.315255 1.847379 -0.716552
v 14.163445 2.308171 -0.688209
v 14.646496 1.847379 -0.716552
v 14.798309 2.308171 -0.688209
v 15.139353 1.928325 -0.487543
v 15.007645 2.195177 -0.576670
v 14.999568 2.211541 -0.496593
v 15.467851 2.455329 -0.175885
v 15.487134 2.461281 -0.212645
v 15.348298 2.690676 -0.432266
v 15.367866 2.688365 -0.464186
v 14.942568 2.746010 -0.585232
v 14.951295 2.746010 -0.621589
v 14.859784 2.494757 -0.650227
v 14.480876 2.756907 -0.694238
v 14.480876 2.494757 -0.709246
v 14.010458 2.746010 -0.621589
v 14.101968 2.494757 -0.650227
v 14.019183 2.746010 -0.585232
vn -0.3676 -0.9155 0.1632
vn -0.6749 -0.3440 -0.6528
vn -0.5899 0.7229 0.3598
vn -0.8967 0.4426 -0.0000
vn -0.4315 -0.0869 -0.8979
vn -0.0000 0.0614 -0.9981
vn 0.4315 -0.0869 -0.8979
vn 0.8967 0.4426 -0.0000
vn 0.3701 -0.9137 0.1681
vn 0.5917 0.7149 0.3726
vn -0.9273 0.1333 -0.3498
vn 0.5223 -0.0567 -0.8509
vn 0.9285 -0.1217 0.3507
vn -0.2328 0.0049 0.9725
vn 0.3568 -0.0396 -0.9333
vn 0.1537 0.0565 -0.9865
vn -0.1537 0.0565 -0.9865
vn 0.2312 0.0165 0.9728
vn -0.9271 -0.1333 0.3504
vn -0.5237 -0.0452 -0.8507
vn 0.9288 0.1217 -0.3500
vn -0.3568 -0.0396 -0.9333
vn -0.4789 0.0209 -0.8776
vn 0.4789 0.0209 -0.8776
vn 0.6820 -0.3519 -0.6411
vt 0.691675 0.222962
vt 0.691319 0.230074
vt 0.564801 0.239904
vt 0.572324 0.226138
vt 0.297523 0.275414
vt 0.349035 0.323787
vt 0.253856 0.394563
vt 0.755037 0.254792
vt 0.754396 0.261927
vt 0.514756 0.208032
vt 0.224480 0.394389
vt 0.246408 0.439527
vt 0.158232 0.468522
vt 0.173143 0.364642
vt 0.246408 0.560784
vt 0.158232 0.531788
vt 0.224480 0.605921
vt 0.173143 0.635668
vt 0.788120 0.234165
vt 0.783953 0.219042
vt 0.844139 0.214614
vt 0.667224 0.195596
vt 0.668507 0.188591
vt 0.598525 0.212141
vt 0.599536 0.205049
vt 0.520742 0.177443
vt 0.517566 0.183839
vt 0.349035 0.676011
vt 0.253856 0.605235
vt 0.310767 0.573139
vt 0.358989 0.590828
vt 0.360274 0.499899
vt 0.310122 0.499899
vt 0.310767 0.426659
vt 0.358989 0.408971
vt 0.838061 0.245985
vt 0.839687 0.252939
vt 0.274984 0.440081
vt 0.274984 0.559718
vt 0.297523 0.724384
s 1
usemtl diffuse_0.001
f 24/23/16 21/24/16 22/25/16 26/26/16
f 21/27/17 23/28/17 22/29/17
f 24/23/18 25/30/18 23/31/18 21/24/18
f 22/25/19 27/32/19 26/26/19
f 22/33/20 29/34/20 28/35/20 27/36/20
f 29/34/21 31/37/21 30/38/21 28/35/21
f 30/38/22 31/37/22 33/39/22 32/40/22
f 33/41/23 34/42/23 32/43/23
f 34/42/24 33/41/24 36/44/24 35/45/24
f 38/46/25 37/47/25 35/45/25 36/44/25
f 39/48/26 37/47/27 38/46/28 40/49/29
f 38/50/30 33/51/30 41/52/30 40/53/30
f 42/54/31 40/53/31 41/52/31 43/55/31
f 45/56/32 44/57/32 42/54/32 43/55/32
f 46/58/33 44/59/34 23/31/35 25/30/36
f 45/56/37 22/29/37 23/28/37 44/57/37
f 22/29/38 45/56/38 29/60/38
f 33/51/39 31/61/39 41/52/39
f 36/62/40 33/51/40 38/50/40
o shell_02
v 14.480875 2.494757 -0.562327
v 14.101967 2.494757 -0.505643
v 14.859783 2.494757 -0.505643
v 14.859783 2.494757 -0.650227
v 14.798308 2.308171 -0.504375
v 14.799726 2.307110 -0.690731
v 14.163444 2.308171 -0.504375
v 14.164861 2.307110 -0.690731
v 14.101967 2.494757 -0.650227
v 14.480875 2.494757 -0.709246
vn -0.0000 -1.0000 -0.0000
vn -0.9509 0.3093 -0.0051
vn -0.0000 1.0000 -0.0057
vn 0.9491 0.3151 0.0031
vt 0.718883 0.302222
vt 0.791253 0.291395
vt 0.791253 0.319010
vt 0.718883 0.330283
vt 0.646512 0.319010
vt 0.646512 0.291395
vt 0.987554 0.291395
vt 0.987554 0.319010
vt 0.950032 0.326264
vt 0.950032 0.291153
vt 0.828775 0.326264
vt 0.828775 0.291153
s 1
usemtl diffuse_0.001
f 47/63/41 48/64/41 55/65/41 56/66/41 50/67/41 49/68/41
f 49/69/42 50/70/42 52/71/42 51/72/42
f 52/71/43 54/73/43 53/74/43 51/72/43
f 48/64/44 53/74/44 54/73/44 55/65/44
o shell_03
v 14.482221 2.755454 -0.657206
v 14.017994 2.748466 -0.586979
v 14.480876 2.494757 -0.562327
v 14.941379 2.748466 -0.586979
v 14.950106 2.748466 -0.623336
v 14.859784 2.494757 -0.505643
v 15.348298 2.690676 -0.432266
v 15.209049 2.461741 -0.372960
v 15.468559 2.462533 -0.180343
v 14.999567 2.211541 -0.496593
v 15.139353 1.928325 -0.487543
v 14.480876 1.810743 -0.505690
v 13.822400 1.928325 -0.487543
v 13.962184 2.211541 -0.496593
v 14.101967 2.494757 -0.505643
v 13.484901 2.462533 -0.180343
v 13.752704 2.461741 -0.372960
v 13.613452 2.690676 -0.432266
v 14.163445 2.308171 -0.504375
v 14.798309 2.308171 -0.504375
v 14.482221 2.755646 -0.693225
v 14.009269 2.748466 -0.623336
vn 0.1372 0.3407 0.9301
vn -0.0000 1.0000 0.0044
vn -0.1380 0.3408 0.9300
vn -0.2867 0.3866 0.8765
vn -0.5185 0.4959 0.6966
vn -0.5931 0.1019 0.7987
vn -0.0000 0.0111 0.9999
vn -0.3635 -0.1500 0.9194
vn 0.3635 -0.1500 0.9194
vn 0.5818 0.0876 0.8086
vn 0.5091 0.4925 0.7058
vn 0.2872 0.3880 0.8758
vt 0.514750 0.426966
vt 0.511028 0.500047
vt 0.457749 0.500047
vt 0.464460 0.411000
vt 0.578727 0.175491
vt 0.669600 0.172067
vt 0.757268 0.196231
vt 0.754811 0.202936
vt 0.668806 0.178900
vt 0.579582 0.182581
vt 0.514750 0.573128
vt 0.464460 0.589095
vt 0.529698 0.643189
vt 0.484711 0.670091
vt 0.546710 0.704500
vt 0.551501 0.707449
vt 0.552204 0.643826
vt 0.601591 0.599070
vt 0.678131 0.499978
vt 0.655698 0.625797
vt 0.547484 0.572343
vt 0.583124 0.560607
vt 0.583124 0.439350
vt 0.547484 0.427613
vt 0.601591 0.400886
vt 0.655698 0.374159
vt 0.552204 0.356131
vt 0.551501 0.292507
vt 0.529698 0.356906
vt 0.484710 0.330003
vt 0.546710 0.295595
s 1
usemtl diffuse_0.001
f 71/75/45 59/76/45 57/77/45 58/78/45
f 61/79/46 77/80/46 78/81/46 58/82/46 57/83/46 60/84/46
f 57/77/47 59/76/47 62/85/47 60/86/47
f 62/85/48 64/87/48 63/88/48 60/86/48
f 64/87/49 65/89/49 63/88/49
f 65/90/50 64/91/50 66/92/50
f 68/93/51 67/94/51 66/92/51 62/95/51 76/96/51 75/97/51 71/98/51 70/99/51 69/100/51
f 62/95/52 66/92/52 64/91/52
f 71/98/53 73/101/53 70/99/53
f 72/102/54 70/99/54 73/101/54
f 73/103/55 74/104/55 72/105/55
f 74/104/56 73/103/56 71/75/56 58/78/56
o shell_04
v 14.480875 1.798499 1.055189
v 14.439759 1.802755 1.055192
v 14.521991 1.802755 1.055192
v 14.853961 1.771079 1.055171
v 14.853944 1.746727 1.055155
v 14.107806 1.746727 1.055155
v 14.923379 1.560350 0.536408
v 14.038371 1.560350 0.536408
v 14.896872 1.560350 0.513926
v 14.826461 1.558831 0.195636
v 15.155604 1.560350 0.195379
v 15.180190 1.560350 0.220249
v 15.184399 1.560350 -0.054211
v 15.158895 1.560350 -0.030834
v 14.810215 1.560349 -0.030752
v 14.914990 1.560348 -0.360673
v 14.942205 1.560348 -0.381672
v 14.019545 1.560348 -0.381672
v 14.046760 1.560348 -0.360673
v 14.151535 1.560349 -0.030752
v 13.802855 1.560350 -0.030834
v 13.777351 1.560350 -0.054211
v 13.781560 1.560350 0.220249
v 13.806146 1.560350 0.195379
v 14.133808 1.560350 0.196486
v 14.064881 1.560350 0.513926
v 14.107789 1.771079 1.055171
vn -0.0000 -0.0007 1.0000
vn -0.0000 -0.9411 0.3381
vn -0.0003 -1.0000 -0.0002
vt 0.549013 0.083825
vt 0.546362 0.087646
vt 0.429227 0.006476
vt 0.431873 0.002651
vt 0.487434 0.033792
vt 0.493426 0.038933
vt 0.500344 0.042738
vt 0.497298 0.181733
vt 0.358362 0.085457
vt 0.259681 0.148886
vt 0.253134 0.149782
vt 0.283652 0.107152
vt 0.284806 0.113731
vt 0.336366 0.149203
vt 0.360078 0.091870
vt 0.490690 0.182379
vt 0.445336 0.224715
vt 0.496655 0.260534
vt 0.503220 0.259304
vt 0.474024 0.302849
vt 0.472563 0.296404
vt 0.417833 0.258460
vt 0.398391 0.321652
vt 0.400379 0.327909
vt 0.255532 0.227536
vt 0.262089 0.227200
vt 0.314428 0.186805
s 1
usemtl diffuse_0.001
f 105/106/57 84/107/57 83/108/57 82/109/57 81/110/57 79/111/57 80/112/57
f 83/108/58 84/107/58 86/113/58 85/114/58
f 92/115/59 91/116/59 90/117/59 89/118/59 88/119/59 87/120/59 85/114/59 86/113/59 104/121/59 103/122/59 102/123/59 101/124/59 100/125/59 99/126/59 98/127/59 97/128/59 96/129/59 95/130/59 94/131/59 93/132/59
o shell_05
v 14.853962 1.771079 1.055171
v 14.521992 1.802755 1.055192
v 15.242102 1.787005 0.828694
v 14.853945 1.746727 1.055155
v 15.240662 1.762595 0.829509
v 14.923380 1.560350 0.536408
v 15.246013 1.832464 0.632732
v 15.246013 1.762457 -0.021097
v 14.480876 1.669326 -0.151204
v 15.139354 1.928325 -0.487543
v 14.480876 1.810744 -0.505690
v 13.822400 1.928325 -0.487543
v 13.715739 1.762457 -0.021097
v 13.715739 1.832464 0.632732
v 14.439760 1.802755 1.055192
v 13.719648 1.787005 0.828694
v 14.107790 1.771079 1.055171
v 13.721090 1.762595 0.829509
v 14.107807 1.746727 1.055155
v 14.038372 1.560350 0.536408
v 14.480876 1.798499 1.055189
vn 0.0925 0.9695 0.2268
vn 0.5040 -0.0009 0.8637
vn 0.2451 -0.9015 0.3567
vn -0.1024 0.9891 -0.1059
vn -0.1734 0.9147 0.3649
vn 0.1734 0.9147 0.3649
vn 0.1024 0.9891 -0.1059
vn -0.0925 0.9695 0.2268
vn -0.5040 -0.0010 0.8637
vn -0.2451 -0.9015 0.3567
vt 0.690303 0.428190
vt 0.732990 0.353665
vt 0.771410 0.352849
vt 0.691785 0.491866
vt 0.686187 0.426024
vt 0.728717 0.351772
vt 0.640161 0.330413
vt 0.897003 0.352849
vt 0.923606 0.499760
vt 0.691872 0.499760
vt 0.992684 0.367022
vt 0.996330 0.494773
vt 0.897004 0.646671
vt 0.996330 0.504747
vt 0.992684 0.632498
vt 0.691785 0.507655
vt 0.771410 0.646671
vt 0.690303 0.571331
vt 0.732990 0.645856
vt 0.728717 0.647749
vt 0.686187 0.573497
vt 0.640161 0.669107
s 1
usemtl diffuse_0.001
f 106/133/60 108/134/60 112/135/60 107/136/60
f 106/133/61 109/137/61 110/138/61 108/134/61
f 109/137/62 111/139/62 110/138/62
f 112/135/63 113/140/63 114/141/63 126/142/63 107/136/63
f 115/143/64 116/144/64 114/141/64 113/140/64
f 118/145/65 114/141/65 116/146/65 117/147/65
f 120/148/66 126/142/66 114/141/66 118/145/66 119/149/66
f 122/150/67 120/148/67 119/149/67 121/151/67
f 123/152/68 124/153/68 122/150/68 121/151/68
f 124/153/69 123/152/69 125/154/69
o shell_06
v 15.158897 1.560350 -0.030834
v 15.376098 0.037291 -0.755142
v 14.808737 1.558830 -0.031601
v 15.184400 1.560350 -0.054210
v 15.401596 0.037291 -0.778516
v 14.942206 1.560348 -0.381671
v 15.378400 0.053987 -0.816202
v 14.914991 1.560348 -0.360671
v 15.349401 0.037291 -0.791261
v 15.337928 0.037291 -0.755133
vn 0.6549 -0.2464 0.7144
vn -0.0001 -0.4295 0.9031
vn 0.7599 0.3687 -0.5354
vn -0.6388 0.0359 -0.7686
vn -0.9357 -0.1815 -0.3024
vn 0.0454 -0.9815 -0.1861
vt 0.059696 0.836930
vt 0.358600 0.957465
vt 0.358695 0.964071
vt 0.059791 0.843537
vt 0.076371 0.772454
vt 0.360426 0.950407
vt 0.357814 0.972042
vt 0.051243 0.920857
vt 0.354380 0.977642
vt 0.047810 0.926454
vt 0.350860 0.983968
vt 0.015666 0.984230
vt 0.365302 0.964104
vt 0.370653 0.969055
vt 0.364357 0.972630
s 1
usemtl diffuse_0.001
f 127/155/70 128/156/70 131/157/70 130/158/70
f 127/155/71 129/159/71 136/160/71 128/156/71
f 131/157/72 133/161/72 132/162/72 130/158/72
f 135/163/73 134/164/73 132/162/73 133/161/73
f 135/163/74 136/165/74 129/166/74 134/164/74
f 131/157/75 128/167/75 136/168/75 135/169/75 133/161/75
o shell_07
v 13.802856 1.560350 -0.030834
v 13.579238 0.046313 -0.757479
v 14.150055 1.558830 -0.031601
v 13.777352 1.560350 -0.054210
v 13.553740 0.046313 -0.780853
v 14.019547 1.560348 -0.381671
v 13.583351 0.053987 -0.816202
v 14.046762 1.560348 -0.360671
v 13.610581 0.053987 -0.795191
v 13.617408 0.046313 -0.757470
vn -0.6549 -0.2462 0.7145
vn 0.0001 -0.4327 0.9015
vn -0.7458 0.3747 -0.5508
vn 0.6101 0.0514 -0.7907
vn 0.9388 -0.1911 -0.2866
vn 0.0712 -0.9867 -0.1459
vt 0.358743 0.035295
vt 0.358656 0.041901
vt 0.059903 0.162812
vt 0.059990 0.156205
vt 0.360490 0.048957
vt 0.076659 0.227267
vt 0.051345 0.078895
vt 0.357852 0.027326
vt 0.047905 0.073303
vt 0.354410 0.021730
vt 0.015689 0.015568
vt 0.350882 0.015408
vt 0.365349 0.035254
vt 0.364394 0.026729
vt 0.370694 0.030296
s 1
usemtl diffuse_0.001
f 141/170/76 138/171/76 137/172/76 140/173/76
f 146/174/77 139/175/77 137/172/77 138/171/77
f 141/170/78 140/173/78 142/176/78 143/177/78
f 142/176/79 144/178/79 145/179/79 143/177/79
f 139/180/80 146/181/80 145/179/80 144/178/80
f 138/182/81 141/170/81 143/177/81 145/183/81 146/184/81
o shell_08
v 14.036890 1.558831 0.535559
v 13.781560 1.560350 0.220250
v 13.721089 1.762596 0.829510
v 13.589954 0.062376 1.013925
v 14.063400 1.558831 0.513077
v 14.132328 1.558831 0.195637
v 13.616480 0.062376 0.991429
v 13.620407 0.053987 0.958679
v 13.584371 0.053987 0.958557
v 13.563446 0.062376 0.981286
v 13.806146 1.560350 0.195380
vn -0.7121 0.3976 0.5786
vn -0.3348 -0.9037 0.2668
vn 0.6460 0.0506 0.7617
vn 0.9539 -0.2205 0.2037
vn -0.0209 -0.9833 0.1810
vn -0.0010 -0.4519 -0.8921
vn -0.7238 -0.2250 -0.6523
vt 0.897266 0.073605
vt 0.889542 0.151017
vt 0.586070 0.033875
vt 0.586867 0.025884
vt 0.988281 0.077415
vt 0.590408 0.020264
vt 0.900805 0.067988
vt 0.593695 0.014292
vt 0.930718 0.013632
vt 0.579395 0.033940
vt 0.574525 0.029075
vt 0.580244 0.025365
vt 0.584800 0.047227
vt 0.586432 0.040541
vt 0.889905 0.157687
vt 0.875069 0.218486
s 1
usemtl diffuse_0.001
f 147/185/82 148/186/82 156/187/82 150/188/82
f 147/185/83 149/189/83 148/186/83
f 153/190/84 151/191/84 147/185/84 150/188/84
f 153/190/85 154/192/85 152/193/85 151/191/85
f 150/188/86 156/187/86 155/194/86 154/195/86 153/196/86
f 154/197/87 155/198/87 157/199/87 152/200/87
f 148/186/88 157/199/88 155/198/88 156/187/88
o shell_09
v 15.180193 1.560350 0.220250
v 15.395624 0.053987 0.981713
v 15.155605 1.560350 0.195380
v 14.921899 1.558831 0.535559
v 15.240662 1.762596 0.829510
v 15.369114 0.053987 1.014353
v 14.895391 1.558831 0.513077
v 15.342587 0.053987 0.991857
v 14.827944 1.560350 0.196487
v 15.335014 0.053987 0.956979
v 15.377380 0.053987 0.958557
vn 0.7097 0.3961 0.5826
vn 0.7276 -0.2228 -0.6489
vn 0.3317 -0.9047 0.2674
vn -0.6460 0.0504 0.7617
vn -0.9544 -0.2190 0.2028
vn 0.0011 -0.4511 -0.8925
vn -0.0000 -1.0000 -0.0000
vt 0.586473 0.966223
vt 0.889784 0.848665
vt 0.897614 0.926066
vt 0.587281 0.974214
vt 0.586826 0.959557
vt 0.890137 0.841994
vt 0.988624 0.922131
vt 0.901161 0.931678
vt 0.590830 0.979829
vt 0.931149 0.985992
vt 0.594125 0.985797
vt 0.585185 0.952873
vt 0.875218 0.781216
vt 0.579798 0.966169
vt 0.580659 0.974742
vt 0.574935 0.971040
s 1
usemtl diffuse_0.001
f 159/201/89 158/202/89 161/203/89 163/204/89
f 168/205/90 160/206/90 158/202/90 159/201/90
f 161/203/91 158/202/91 162/207/91
f 161/203/92 164/208/92 165/209/92 163/204/92
f 166/210/93 167/211/93 165/209/93 164/208/93
f 160/206/94 168/205/94 167/212/94 166/213/94
f 168/214/95 159/201/95 163/204/95 165/215/95 167/216/95
